<svg xmlns="http://www.w3.org/2000/svg" width="31.157" height="33.661" viewBox="0 0 31.157 33.661">
  <g id="cart_icon" data-name="cart icon" transform="translate(1.162)">
    <g id="Subtraction_4" data-name="Subtraction 4" transform="translate(7.714)" fill="none">
      <path d="M13.361,9.87H.033c-.022-.3-.033-.6-.033-.9C0,4.025,3,0,6.7,0s6.7,4.025,6.7,8.972c0,.3-.011.6-.033.9Z" stroke="none"/>
      <path d="M 11.33212184906006 7.869503498077393 C 10.96391773223877 4.591863632202148 8.990757942199707 2.000003337860107 6.696863651275635 2.000003337860107 C 4.402951240539551 2.000003337860107 2.429773569107056 4.591863632202148 2.061565637588501 7.869503498077393 L 11.33212184906006 7.869503498077393 M 13.36058330535889 9.869503021240234 L 13.35994338989258 9.869503021240234 L 0.03310362249612808 9.869503021240234 C 0.01089362427592278 9.569793701171875 3.624114924605237e-06 9.268243789672852 3.624114924605237e-06 8.972423553466797 C 3.624114924605237e-06 4.025013446807861 3.004213571548462 3.417968855501385e-06 6.696863651275635 3.417968855501385e-06 C 10.38951396942139 3.417968855501385e-06 13.39368343353271 4.025013446807861 13.39368343353271 8.972423553466797 C 13.39368343353271 9.271123886108398 13.38256359100342 9.572673797607422 13.36062335968018 9.868703842163086 L 13.36058330535889 9.869503021240234 Z" stroke="none" fill="#cecece"/>
    </g>
    <line id="Line_14" data-name="Line 14" x2="28.822" transform="translate(0 32.488)" fill="none" stroke="#cecece" stroke-linecap="round" stroke-width="2"/>
    <line id="Line_15" data-name="Line 15" x1="4.25" y2="23.5" transform="translate(0 8.988)" fill="none" stroke="#cecece" stroke-linecap="round" stroke-width="2"/>
    <line id="Line_16" data-name="Line 16" x2="4.572" y2="23.5" transform="translate(24.25 8.988)" fill="none" stroke="#cecece" stroke-linecap="round" stroke-width="2"/>
    <line id="Line_17" data-name="Line 17" x2="19.75" y2="0.118" transform="translate(4.5 8.87)" fill="none" stroke="#cecece" stroke-linecap="round" stroke-width="2"/>
  </g>
</svg>
