<svg xmlns="http://www.w3.org/2000/svg" width="18.771" height="18.771" viewBox="0 0 18.771 18.771">
  <path id="Icon_material-copyright" data-name="Icon material-copyright" d="M10.179,10.872a2.272,2.272,0,0,1,.267-.773,1.554,1.554,0,0,1,.524-.551,1.577,1.577,0,0,1,.809-.2,1.611,1.611,0,0,1,.56.116,1.433,1.433,0,0,1,.462.32,1.711,1.711,0,0,1,.3.471,1.556,1.556,0,0,1,.124.569h1.59a3.181,3.181,0,0,0-.249-1.146,2.667,2.667,0,0,0-.622-.9,2.9,2.9,0,0,0-.96-.586,3.432,3.432,0,0,0-1.235-.2,3.473,3.473,0,0,0-1.511.3A3.056,3.056,0,0,0,9.175,9.1a3.34,3.34,0,0,0-.631,1.208,5.2,5.2,0,0,0-.213,1.457v.24a5.2,5.2,0,0,0,.2,1.457,3.23,3.23,0,0,0,.631,1.2,3.033,3.033,0,0,0,1.066.809,3.606,3.606,0,0,0,1.511.3,3.389,3.389,0,0,0,1.173-.2,3.031,3.031,0,0,0,.96-.56,2.712,2.712,0,0,0,.658-.835,2.392,2.392,0,0,0,.267-1.022h-1.59a1.265,1.265,0,0,1-.133.515,1.308,1.308,0,0,1-.32.409,1.4,1.4,0,0,1-.462.267,1.764,1.764,0,0,1-.533.089,1.509,1.509,0,0,1-.791-.2,1.554,1.554,0,0,1-.524-.551,2.322,2.322,0,0,1-.267-.782,5.989,5.989,0,0,1-.071-.889v-.24a5.92,5.92,0,0,1,.071-.9ZM11.885,3a8.885,8.885,0,1,0,8.885,8.885A8.889,8.889,0,0,0,11.885,3Zm0,15.994a7.108,7.108,0,1,1,7.108-7.108A7.118,7.118,0,0,1,11.885,18.994Z" transform="translate(-2.5 -2.5)" fill="#fb5b3e" stroke="#fb5b3e" stroke-width="1"/>
</svg>
