<svg xmlns="http://www.w3.org/2000/svg" width="134.357" height="30.174" viewBox="0 0 134.357 30.174">
  <g id="Group_48" data-name="Group 48" transform="translate(-235.643 -5036.305)">
    <path id="Icon_awesome-facebook-f" data-name="Icon awesome-facebook-f" d="M15.55,15.667l.774-5.041H11.486V7.355a2.52,2.52,0,0,1,2.842-2.723h2.2V.341A26.815,26.815,0,0,0,12.624,0C8.641,0,6.037,2.414,6.037,6.785v3.842H1.609v5.041H6.037V27.853h5.449V15.667Z" transform="translate(234.534 5037.931)" fill="#fb5b3e" stroke="#fb5b3e" stroke-width="1"/>
    <path id="Icon_awesome-instagram" data-name="Icon awesome-instagram" d="M13.927,9.023a7.141,7.141,0,1,0,7.141,7.141A7.13,7.13,0,0,0,13.927,9.023Zm0,11.784a4.643,4.643,0,1,1,4.643-4.643,4.651,4.651,0,0,1-4.643,4.643Zm9.1-12.076a1.666,1.666,0,1,1-1.666-1.666A1.662,1.662,0,0,1,23.026,8.731Zm4.73,1.69a8.243,8.243,0,0,0-2.25-5.836,8.3,8.3,0,0,0-5.836-2.25c-2.3-.131-9.192-.131-11.492,0A8.285,8.285,0,0,0,2.342,4.579a8.27,8.27,0,0,0-2.25,5.836c-.131,2.3-.131,9.192,0,11.492a8.243,8.243,0,0,0,2.25,5.836,8.308,8.308,0,0,0,5.836,2.25c2.3.131,9.192.131,11.492,0a8.243,8.243,0,0,0,5.836-2.25,8.3,8.3,0,0,0,2.25-5.836c.131-2.3.131-9.186,0-11.485ZM24.785,24.374a4.7,4.7,0,0,1-2.648,2.648c-1.833.727-6.184.559-8.21.559s-6.383.162-8.21-.559A4.7,4.7,0,0,1,3.07,24.374c-.727-1.833-.559-6.184-.559-8.21s-.162-6.383.559-8.21A4.7,4.7,0,0,1,5.717,5.306c1.833-.727,6.184-.559,8.21-.559s6.383-.162,8.21.559a4.7,4.7,0,0,1,2.648,2.648c.727,1.833.559,6.184.559,8.21S25.512,22.547,24.785,24.374Z" transform="translate(280.066 5035.694)" fill="#fb5b3e" stroke="#fb5b3e" stroke-width="1"/>
    <path id="Icon_feather-twitter" data-name="Icon feather-twitter" d="M33.08,4.5a15.386,15.386,0,0,1-4.507,2.291,6.255,6.255,0,0,0-7.146-1.865,6.712,6.712,0,0,0-4.137,6.358v1.5A15.106,15.106,0,0,1,4.371,6s-5.742,13.479,7.177,19.469a16.206,16.206,0,0,1-10.048,3c12.919,7.488,28.709,0,28.709-17.223A7.022,7.022,0,0,0,30.094,10,11.7,11.7,0,0,0,33.08,4.5Z" transform="translate(335.42 5033.439)" fill="none" stroke="#fb5b3e" stroke-linecap="round" stroke-linejoin="round" stroke-width="3"/>
  </g>
</svg>
