<svg xmlns="http://www.w3.org/2000/svg" width="21.747" height="27.788" viewBox="0 0 21.747 27.788">
  <g id="Group_23" data-name="Group 23" transform="translate(0.001 0)">
    <g id="Path_11" data-name="Path 11" transform="translate(-0.001 0)" fill="none" stroke-linecap="round" stroke-linejoin="round">
      <path d="M10.874,0A10.8,10.8,0,0,1,21.747,10.723c0,5.922-10.874,17.065-10.874,17.065S0,16.646,0,10.723A10.8,10.8,0,0,1,10.874,0Z" stroke="none"/>
      <path d="M 10.87367534637451 3 C 6.53211498260498 3 2.999996185302734 6.464740753173828 2.999996185302734 10.72349166870117 C 2.999996185302734 11.3493709564209 3.344635009765625 13.83929061889648 7.779115676879883 19.60145950317383 C 8.86788272857666 21.01620483398438 9.966123580932617 22.31653594970703 10.87402439117432 23.34919738769531 C 11.77080249786377 22.32909202575684 12.8544282913208 21.04615020751953 13.93465518951416 19.64505004882812 C 18.4002857208252 13.85294055938721 18.74734497070312 11.35202026367188 18.74734497070312 10.72349166870117 C 18.74734497070312 6.464740753173828 15.21523475646973 3 10.87367534637451 3 M 10.87367534637451 0 C 16.87903594970703 0 21.74734497070312 4.801071166992188 21.74734497070312 10.72349166870117 C 21.74734497070312 16.64590072631836 10.87367534637451 27.78830146789551 10.87367534637451 27.78830146789551 C 10.87367534637451 27.78830146789551 -3.814697265625e-06 16.64590072631836 -3.814697265625e-06 10.72349166870117 C -3.814697265625e-06 4.801071166992188 4.868314743041992 0 10.87367534637451 0 Z" stroke="none" fill="#a5a5a5"/>
    </g>
    <g id="Ellipse_21" data-name="Ellipse 21" transform="translate(6.211 5.924)" fill="none" stroke="#a5a5a5" stroke-width="3">
      <ellipse cx="4.5" cy="5" rx="4.5" ry="5" stroke="none"/>
      <ellipse cx="4.5" cy="5" rx="3" ry="3.5" fill="none"/>
    </g>
  </g>
</svg>
