<svg xmlns="http://www.w3.org/2000/svg" width="24.164" height="26.764" viewBox="0 0 24.164 26.764">
  <g id="Group_21" data-name="Group 21" transform="translate(0 0)">
    <g id="Ellipse_22" data-name="Ellipse 22" transform="translate(6.041 0)" fill="none" stroke="#a5a5a5" stroke-width="3">
      <ellipse cx="6.041" cy="6.645" rx="6.041" ry="6.645" stroke="none"/>
      <ellipse cx="6.041" cy="6.645" rx="4.541" ry="5.145" fill="none"/>
    </g>
    <g id="Path_12" data-name="Path 12" transform="translate(0 10.874)" fill="none">
      <path d="M12.082,0c6.673,0,12.082,5.03,12.082,11.236S0,17.441,0,11.236,5.409,0,12.082,0Z" stroke="none"/>
      <path d="M 12.08186149597168 2.999995231628418 C 7.157859802246094 2.999995231628418 3.136543273925781 6.571646690368652 3.00341796875 11.00834083557129 C 3.267087936401367 11.25093841552734 4.051326751708984 11.74393463134766 5.705251693725586 12.17393493652344 C 7.481090545654297 12.63562488555908 9.745681762695312 12.88989448547363 12.08186149597168 12.88989448547363 C 14.41804122924805 12.88989448547363 16.68263244628906 12.63562488555908 18.45847129821777 12.17393493652344 C 20.11239624023438 11.74393463134766 20.89663314819336 11.25093841552734 21.16030502319336 11.00834083557129 C 21.02717971801758 6.571646690368652 17.00586318969727 2.999995231628418 12.08186149597168 2.999995231628418 M 12.08186149597168 -5.7220458984375e-06 C 18.75449180603027 -5.7220458984375e-06 24.16372108459473 5.030465126037598 24.16372108459473 11.23585510253906 C 24.16372108459473 14.33854961395264 18.1227912902832 15.88989734649658 12.08186149597168 15.88989734649658 C 6.040931701660156 15.88989734649658 1.9073486328125e-06 14.33854961395264 1.9073486328125e-06 11.23585510253906 C 1.9073486328125e-06 5.030465126037598 5.409231185913086 -5.7220458984375e-06 12.08186149597168 -5.7220458984375e-06 Z" stroke="none" fill="#a5a5a5"/>
    </g>
  </g>
</svg>
