<svg xmlns="http://www.w3.org/2000/svg" width="26.938" height="26.939" viewBox="0 0 26.938 26.939">
  <path id="Icon_awesome-phone-alt" data-name="Icon awesome-phone-alt" d="M23.229,16.9,18,14.655a1.121,1.121,0,0,0-1.308.322l-2.316,2.83A17.31,17.31,0,0,1,6.1,9.532l2.83-2.316a1.118,1.118,0,0,0,.322-1.308L7.01.678A1.128,1.128,0,0,0,5.726.029L.869,1.149A1.121,1.121,0,0,0,0,2.242a21.667,21.667,0,0,0,21.67,21.67,1.121,1.121,0,0,0,1.093-.869l1.121-4.857a1.134,1.134,0,0,0-.654-1.289Z" transform="translate(1.5 1.528)" fill="none" stroke="#a5a5a5" stroke-width="3"/>
</svg>
